<svg id="MemberBtn" xmlns="http://www.w3.org/2000/svg" width="153" height="59.39" viewBox="0 0 153 59.39">
  <path id="Path_5" data-name="Path 5" d="M-10.393,4.082,135.571,4.5l-6.563,58.967H-17.429Z" transform="translate(17.429 -4.082)" fill="#0584ff"/>
  <path id="Path_8" data-name="Path 8" d="M11.27-26.6H3.5L-1.19,0H6.58L9.065-2.1l1.645-9.38-1.75-2.1,2.485-2.1,1.54-8.82ZM7.245-14.91H4.8L6.37-23.8H8.82l.56.7-1.3,7.49Zm-.49,2.8.56.7L5.95-3.57l-.84.7H2.66l1.645-9.24ZM18.62,0l.49-2.87H14.665l4.2-23.73h-3.36L10.815,0Zm1.5,0h3.36l4.69-26.6h-3.36ZM40.39,0l6.3-20.86L43.015,0H46.2l4.69-26.6H45.92L39.655-5.11l1.3-21.49H36.085L31.395,0H34.44l3.675-20.86L37.065,0Zm8.12,0h8.365l.49-2.87H52.36L54-12.04H58.31l.49-2.87h-4.3l1.575-8.82H61l.49-2.87H53.2ZM71.225-26.6H63.35L58.66,0h7.875L69.02-2.1l3.92-22.4ZM65.065-2.87H62.51l3.71-20.86h2.555l.56.7L65.9-3.57ZM78.645,0l.49-2.87H74.69l4.2-23.73H75.53L70.84,0Zm1.5,0h8.365L89-2.87H84l1.645-9.17H89.95l.49-2.87H86.135l1.575-8.82h4.935l.49-2.87H84.84ZM99.295,0l6.3-20.86L101.92,0H105.1l4.69-26.6h-4.97L98.56-5.11,99.855-26.6H94.99L90.3,0h3.045L97.02-20.86,95.97,0Z" transform="translate(22.197 44.995)" fill="#fff"/>
</svg>
