<svg xmlns="http://www.w3.org/2000/svg" width="56" height="20" viewBox="0 0 56 20">
  <path id="Union_2" data-name="Union 2" d="M2170.9,20h-14.826V0H2177V3.243h0V20ZM2161.3,10a5.238,5.238,0,0,0,10.465,0,5.238,5.238,0,0,0-10.465,0Zm10.465-5.833a.873.873,0,1,0,.872-.833A.854.854,0,0,0,2171.768,4.167ZM2135.707,20H2121V15.676h0l.039-15.563h1.234l17.11.023c2.574-.013,2.47,0,2.47,0l.064,15.539h.008V20Zm-5.239-8.1h1.994v7.143h2.492V11.9h1.993l.5-2.381h-2.491V8.1c0-.714.428-.952,1.495-.952h1V5.238a3.173,3.173,0,0,0-1.993-.476c-1.993,0-2.99,1.429-2.99,3.333V9.524h-1.994Zm32.579-1.9a3.492,3.492,0,0,1,6.976,0,3.492,3.492,0,0,1-6.976,0Z" transform="translate(-2121)" fill="#fff"/>
</svg>
