<svg xmlns="http://www.w3.org/2000/svg" width="149.84" height="96" viewBox="0 0 149.84 96">
  <path id="Union_4" data-name="Union 4" d="M2167.452,87.792a48.714,48.714,0,0,1-10.365-9.281,47.808,47.808,0,0,1-7.3-11.862h6.745a43.015,43.015,0,0,0,76.4,0h6.745a47.793,47.793,0,0,1-7.3,11.862,49.324,49.324,0,0,1-64.92,9.281Zm50.31-11.359-.024-3.962h-.5l-.7,3.962h-1.17l1.634-9.294h2.706l.6.734-.67,3.865-.768.648.024,4.048Zm-.353-4.916h.853l.281-.245.511-2.911-.2-.244h-.853Zm-5.571,4.916,1.634-9.294h2.889l-.17,1h-1.719l-.549,3.082h1.5l-.171,1h-1.5l-.573,3.2h1.743l-.171,1Zm-2.792,0,1.463-8.316H2209.4l.17-.978h3.389l-.171.978h-1.11l-1.462,8.316Zm-2.889,0-.219-6.347-1.122,6.347h-1.06l1.634-9.294h1.268l.207,6.445L2208,67.139h1.061l-1.634,9.294Zm-5.937,0,1.634-9.294h2.889l-.171,1h-1.719l-.549,3.082h1.5l-.171,1h-1.5l-.573,3.2h1.743l-.17,1Zm-3.206,0-.6-.734,1.365-7.827.865-.734h1.8l.6.734-.366,2.091h-1.17l.28-1.6-.2-.244h-.439l-.292.244-1.195,6.824.2.245h.439l.292-.245.28-1.59h1.17l-.365,2.1-.865.734Zm-5.924,0-.6-.734.341-1.945H2192l-.256,1.456.195.244h.488l.293-.244.475-2.739-.195-.245h-1.146l-.61-.734.634-3.62.865-.734h1.792l.6.734-.341,1.957h-1.171l.256-1.468-.2-.244h-.426l-.293.244-.451,2.617.2.244h1.146l.61.734-.658,3.742-.866.734Zm-3.9,0-.6-.734.341-1.945h1.171l-.256,1.456.195.244h.488l.293-.244.475-2.739-.195-.245h-1.146l-.609-.734.634-3.62.865-.734h1.792l.6.734-.342,1.957h-1.17l.256-1.468-.2-.244h-.427l-.292.244-.451,2.617.195.244h1.146l.609.734-.658,3.742-.865.734Zm-4.084,0,1.634-9.294h2.889l-.171,1h-1.719l-.548,3.082h1.5l-.171,1h-1.5l-.573,3.2h1.743l-.17,1Zm-2.072,0-.219-6.347-1.122,6.347h-1.061l1.634-9.294h1.268l.207,6.445,1.134-6.445h1.061l-1.634,9.294Zm-5.193,0,1.463-8.316h-1.109l.171-.978h3.388l-.17.978h-1.109l-1.463,8.316Zm-2.792,0,1.634-9.294h1.17l-1.633,9.294Zm-3.4,0,1.634-9.294h2.853l-.171,1h-1.682l-.561,3.192h1.511l-.182,1h-1.511l-.72,4.1Zm94.81-16.51V36.639h-3.106V33.9h9.489v2.739h-3.106V59.924Zm-12.186,0V33.9h8.09v2.808h-4.812v8.629h4.2v2.808h-4.2v8.972h4.88v2.808Zm-5.256,0L2245,48.829h-1.4V59.924h-3.277V33.9h7.577l2.048,2.054V46.775l-1.809,1.814,2.048,11.334ZM2243.6,46.158h2.389l.683-.685v-8.15l-.683-.685H2243.6Zm-12.765,13.765-2.048-2.054V35.954l2.048-2.054h5.359l2.048,2.054v5.513h-3.277V37.392l-.683-.685h-1.536l-.682.685V56.431l.682.685h1.536l.683-.685V49.308h-1.638V46.364h4.915V57.869l-2.048,2.054Zm-6.587,0-.648-6.712h-3l-.648,6.712h-3.277l3.106-26.024h4.71l3.175,26.024Zm-3.413-9.519h2.526L2222.1,37.29Zm-12.424,9.519V33.9h3.276V57.116h4.335v2.808Zm-9.182,0-2.048-2.054V52.424h3.277V56.5l.682.685h1.365l.683-.685v-7.67l-.683-.685H2199.3l-2.049-2.054V35.954L2199.3,33.9h5.017l2.048,2.054v5.479h-3.277V37.324l-.683-.685h-1.195l-.683.685v7.328l.683.685h3.209l2.047,2.055V57.869l-2.047,2.054Zm-11.229,0-2.048-2.054V35.954L2188,33.9h5.359l2.048,2.054v5.513h-3.277V37.392l-.683-.685h-1.535l-.683.685V56.431l.683.685h1.535l.683-.685V49.308h-1.638V46.364h4.915V57.869l-2.048,2.054Zm-7.748,0L2176.5,42.152V59.924h-2.969V33.9h3.55l3.754,18.045V33.9h2.97V59.924Zm-12.253,0V33.9h3.277V59.924Zm-5.8,0-3.754-17.771V59.924h-2.97V33.9h3.55l3.755,18.045V33.9h2.969V59.924Zm-11.571,0-.649-6.712h-3l-.649,6.712h-3.277l3.106-26.024h4.71l3.175,26.024Zm-3.413-9.519h2.526l-1.263-13.115Zm-8.6,9.519L2136.6,48.829h-1.4V59.924h-3.276V33.9h7.577l2.048,2.054V46.775l-1.809,1.814,2.048,11.334ZM2135.2,46.158h2.389l.682-.685v-8.15l-.682-.685H2135.2Zm-11.093,13.765V36.639H2121V33.9h9.489v2.739h-3.106V59.924ZM2149.3,32.016v-3.7h3.277v3.7Zm-4.847,0v-3.7h3.277v3.7Zm14.19-6.334h-7.089a48.773,48.773,0,0,1,29.673-23.816,49.829,49.829,0,0,1,27.014,0,48.769,48.769,0,0,1,29.672,23.815h-7.088a43.067,43.067,0,0,0-72.181,0h0Z" transform="translate(-2121)" fill="#fff"/>
</svg>
